# AST/ASF file generated using VICON BodyLanguage
# -----------------------------------------------
:version 1.10
:name VICON
:units
  mass 1.0
  length 0.45
  angle deg
:documentation
   .ast/.asf automatically generated from VICON data using
   VICON BodyBuilder and BodyLanguage model FoxedUp or BRILLIANT.MOD
:root
   order TX TY TZ RX RY RZ
   axis XYZ
   position 0 0 0  
   orientation 0 0 0 
:bonedata
  begin
     id 1 
     name lhipjoint
     direction 0.612567 -0.751349 0.245431 
     length 2.42285 
     axis 0 0 0  XYZ
  end
  begin
     id 2 
     name lfemur
     direction 0.34202 -0.939693 0  
     length 7.11304  
     axis 0 0 20  XYZ
    dof rx ry rz
    limits (-160.0 20.0)
           (-70.0 70.0)
           (-60.0 70.0)
  end
  begin
     id 3 
     name ltibia
     direction 0.34202 -0.939693 0   
     length 7.84529   
     axis 0 0 20   XYZ
    dof rx
    limits (-10.0 170.0)
  end
  begin
     id 4 
     name lfoot
     direction 0.0779239 -0.214094 0.9737   
     length 1.97176   
     axis -90 7.62852e-016 20   XYZ
    dof rx rz
    limits (-45.0 90.0)
           (-70.0 20.0)
  end
  begin
     id 5 
     name ltoes
     direction 1.53565e-011 -4.21709e-011 1   
     length 0.993197   
     axis -90 7.62852e-016 20   XYZ
    dof rx
    limits (-90.0 20.0)
  end
  begin
     id 6 
     name rhipjoint
     direction -0.665722 -0.709315 0.231701   
     length 2.56642  
     axis 0 0 0  XYZ 
  end
  begin
     id 7 
     name rfemur
     direction -0.34202 -0.939693 0   
     length 7.32108   
     axis 0 0 -20   XYZ
    dof rx ry rz
    limits (-160.0 20.0)
           (-70.0 70.0)
           (-70.0 60.0)
  end
  begin
     id 8 
     name rtibia
     direction -0.34202 -0.939693 0   
     length 7.81254   
     axis 0 0 -20   XYZ
    dof rx
    limits (-10.0 170.0)
 end
 begin
     id 9 
     name rfoot
     direction -0.0832806 -0.228812 0.969902   
     length 2.08278  
     axis -90 -7.62852e-016 -20   XYZ
    dof rx rz
    limits (-45.0 90.0)
           (-20.0 70.0)
  end
  begin
     id 10 
     name rtoes
     direction -1.53589e-011 -4.22086e-011 1   
     length 1.04609   
     axis -90 -7.62852e-016 -20   XYZ
    dof rx
    limits (-90.0 20.0)
  end
  begin
     id 11 
     name lowerback
     direction -0.00506013 0.988403 -0.151766   
     length 2.01978   
     axis 0 0 0   XYZ
    dof rx ry rz
    limits (-20.0 45.0)
           (-30.0 30.0)
           (-30.0 30.0)
  end
  begin
     id 12 
     name upperback
     direction -0.00836389 0.99968 0.0238859   
     length 2.01276   
     axis 0 0 0   XYZ
    dof rx ry rz
    limits (-20.0 45.0)
           (-30.0 30.0)
           (-30.0 30.0)
  end
  begin
     id 13 
     name thorax
     direction -0.00684136 0.995386 0.0957043   
     length 2.07303   
     axis 0 0 0   XYZ
    dof rx ry rz
    limits (-20.0 45.0)
           (-30.0 30.0)
           (-30.0 30.0)
  end
  begin
     id 14 
     name lowerneck
     direction -0.0161045 0.999661 0.0204485   
     length 1.91243   
     axis 0 0 0   XYZ
    dof rx ry rz
    limits (-20.0 45.0)
           (-30.0 30.0)
           (-30.0 30.0)
  end
  begin
     id 15 
     name upperneck
     direction 0.0553583 0.990946 -0.122319   
     length 1.91574   
     axis 0 0 0   XYZ
    dof rx ry rz
    limits (-20.0 45.0)
           (-30.0 30.0)
           (-30.0 30.0)
  end
  begin
     id 16
     name head
     direction 0.0180273 0.998839 -0.0446756  
     length 1.92693  
     axis 0 0 0   XYZ
    dof rx ry rz
    limits (-20.0 45.0)
           (-30.0 30.0)
           (-30.0 30.0)
  end
  begin
     id 17 
     name lclavicle
     direction 0.945646 0.319323 -0.0615358  
     length 4.0076  
     axis 0 0 0   XYZ
    dof ry rz
    limits (-20.0 10.0)
           (0.0 20.0)
  end
  begin
     id 18 
     name lhumerus
     direction 1 -4.48967e-011 -2.79996e-027   
     length 5.64147   
     axis 180 -30 -90   XYZ
    dof rx ry rz
    limits (-60.0 90.0)
           (-90.0 90.0)
           (-90.0 90.0)
  end
  begin
     id 19
     name lradius
     direction 1 -4.48976e-011 -9.5122e-027   
     length 2.86444   
     axis 180 -30 -90   XYZ
    dof rx
    limits (-10.0 170.0)
  end
  begin
     id 20
     name lwrist
     direction 1 -4.48983e-011 -1.24047e-026   
     length 1.43222   
     axis 9.05591e-015 90 90   XYZ
    dof ry
    limits (-180.0 0.0)
 end
  begin
     id 21 
     name lhand
     direction 1 -4.4892e-011 -2.48094e-026   
     length 0.722123   
     axis 1.58305e-014 90 90   XYZ
    dof rx rz
    limits (-90.0 90.0)
           (-45.0 45.0)
  end
  begin
     id 22 
     name lfingers
     direction 1 -4.48895e-011 -4.96187e-026   
     length 0.582194   
     axis 3.1661e-014 90 90   XYZ
    dof rx
    limits (0.0 90.0)
  end
  begin
     id 23
     name lthumb
     direction 0.707107 -6.34961e-011 0.707107   
     length 0.835918   
     axis -90 45 2.85299e-015   XYZ
    dof rx rz
    limits (-45.0 45.0)
           (-45.0 45.0)
  end
  begin
     id 24 
     name rclavicle
     direction -0.932635 0.324218 -0.15835   
     length 3.65819  
     axis 0 0 0   XYZ 
    dof ry rz
    limits (-10.0 20.0)
           (-20.0 0.0)
  end
  begin
     id 25 
     name rhumerus
     direction -1 -4.48965e-011 -4.02296e-027  
     length 5.44729   
     axis 180 30 90   XYZ
    dof rx ry rz
    limits (-90.0 60.0)
           (-90.0 90.0)
           (-90.0 90.0)
  end
  begin
     id 26 
     name rradius
     direction -1 -4.48957e-011 -8.81087e-027   
     length 3.08821   
     axis 180 30 90   XYZ
    dof rx
    limits (-10.0 170.0)
  end
  begin
     id 27 
     name rwrist
     direction -1 -4.49015e-011 -1.24047e-026   
     length 1.5441   
     axis 9.05591e-015 -90 -90   XYZ
    dof ry
    limits (-180.0 0.0)
  end
  begin
     id 28
     name rhand
     direction -1 -4.4891e-011 -2.48094e-026   
     length 0.821049   
     axis 1.58305e-014 -90 -90   XYZ
    dof rx rz
    limits (-90.0 90.0)
           (-45.0 45.0)
  end
  begin
     id 29
     name rfingers
     direction -1 -4.48985e-011 -4.96187e-026   
     length 0.661951   
     axis 3.1661e-014 -90 -90   XYZ
    dof rx
    limits (0.0 90.0)
  end
  begin
     id 30
     name rthumb
     direction -0.707107 -6.34906e-011 0.707107   
     length 0.950433   
     axis -90 -45 -2.85299e-015   XYZ
    dof rx rz
    limits (-45.0 45.0)
           (-45.0 45.0)
  end
:hierarchy
  begin
    root lhipjoint rhipjoint lowerback
    lhipjoint lfemur
    lfemur ltibia
    ltibia lfoot
    lfoot ltoes
    rhipjoint rfemur
    rfemur rtibia
    rtibia rfoot
    rfoot rtoes
    lowerback upperback
    upperback thorax
    thorax lowerneck lclavicle rclavicle
    lowerneck upperneck
    upperneck head
    lclavicle lhumerus
    lhumerus lradius
    lradius lwrist
    lwrist lhand lthumb
    lhand lfingers
    rclavicle rhumerus
    rhumerus rradius
    rradius rwrist
    rwrist rhand rthumb
    rhand rfingers
  end

#!OML:ASF F:\VICON\USERDATA\INSTALL\rory3\rory3.ASF
:FULLY-SPECIFIED
:DEGREES
1115
root 3.10219 17.7835 0.406105 -31.0359 88.1839 -30.4718
lowerback 1.03227 1.29546 3.59925
upperback -1.21147 1.77726 -1.5629
thorax -1.66533 0.835115 -3.66908
lowerneck -4.59823 -5.65449 -5.51977
upperneck 13.5001 -7.99443 7.59208
head 5.3398 -3.651 2.7738
rclavicle -9.83984e-015 -3.97569e-015
rhumerus 17.9609 20.8756 -69.4553
rradius 60.975
rwrist 34.132
rhand -5.89333 1.87188
rfingers 7.12502
rthumb 19.9349 -27.1256
lclavicle -9.83984e-015 -3.97569e-015
lhumerus -33.9657 -4.59066 84.205
lradius 27.8418
lwrist 28.2139
lhand -10.4248 10.3388
lfingers 7.12502
lthumb 15.5745 39.7317
rfemur 0.295933 1.76107 19.9188
rtibia 14.4438
rfoot -15.3276 -1.4482
rtoes -7.82577
lfemur 0 0 0
ltibia 0
lfoot 0 0
ltoes 0
1116
root 3.10449 17.7838 0.407395 -29.167 88.2306 -28.5686
lowerback 1.04891 1.31883 3.57601
upperback -1.2108 1.80803 -1.61984
thorax -1.67013 0.850516 -3.71591
lowerneck -4.63433 -5.67744 -5.46817
upperneck 13.6354 -8.02822 7.54474
head 5.38627 -3.66349 2.74665
rclavicle -4.79568e-015 5.56597e-015
rhumerus 19.9905 22.8703 -67.7676
rradius 60.97
rwrist 34.319
rhand -5.56612 2.37896
rfingers 7.12502
rthumb 20.2494 -26.5855
lclavicle -4.79568e-015 5.56597e-015
lhumerus -33.9695 -4.58039 84.1328
lradius 27.6175
lwrist 28.0813
lhand -10.3649 10.092
lfingers 7.12502
lthumb 15.6322 39.4804
rfemur 0.365454 1.70541 19.8324
rtibia 14.4059
rfoot -15.3119 -1.43361
rtoes -7.69999
lfemur 0 0 0
ltibia 0
lfoot 0 0
ltoes 0
1117
root 3.10624 17.7824 0.409392 -29.9009 88.1925 -29.2946
lowerback 1.04227 1.36495 3.71191
upperback -1.20884 1.87142 -1.66241
thorax -1.65326 0.880733 -3.83758
lowerneck -4.66363 -5.7207 -5.44356
upperneck 13.7146 -8.08738 7.51185
head 5.41764 -3.6905 2.72684
rclavicle -1.33186e-014 6.36111e-015
rhumerus 22.1147 25.0158 -65.7979
rradius 60.8806
rwrist 34.4351
rhand -5.32464 2.47683
rfingers 7.12502
rthumb 20.4815 -26.4629
lclavicle -1.33186e-014 6.36111e-015
lhumerus -33.9734 -4.69749 84.111
lradius 27.4937
lwrist 28.0714
lhand -10.4465 9.95478
lfingers 7.12502
lthumb 15.5536 39.3493
rfemur 0.361554 1.73277 19.883
rtibia 14.4321
rfoot -15.3563 -1.39773
rtoes -7.23764
lfemur 0 0 0
ltibia 0
lfoot 0 0
ltoes 0
1118
root 3.10644 17.782 0.412061 -29.5179 88.1685 -28.8915
lowerback 1.08114 1.42001 3.8089
upperback -1.21732 1.94747 -1.73281
thorax -1.67137 0.916723 -3.96795
lowerneck -4.68074 -5.76614 -5.39758
upperneck 13.8009 -8.15668 7.51576
head 5.4504 -3.71869 2.71466
rclavicle -1.4387e-014 1.74931e-014
rhumerus 24.376 27.2948 -63.5338
rradius 60.7582
rwrist 34.3017
rhand -5.39708 2.26423
rfingers 7.12502
rthumb 20.4119 -26.6829
lclavicle -1.4387e-014 1.74931e-014
lhumerus -33.9486 -4.85145 84.0648
lradius 27.3716
lwrist 28.0756
lhand -10.5358 10.0714
lfingers 7.12502
lthumb 15.4676 39.4726
rfemur 0.349071 1.71828 19.8895
rtibia 14.4901
rfoot -15.3951 -1.33815
rtoes -7.19752
lfemur 0 0 0
ltibia 0
lfoot 0 0
ltoes 0
1119
root 3.10779 17.7823 0.41361 -26.7541 88.2486 -26.1004
lowerback 1.09434 1.42187 3.6898
upperback -1.21411 1.94785 -1.76941
thorax -1.67791 0.918267 -3.93899
lowerneck -4.66888 -5.77597 -5.35659
upperneck 13.8442 -8.16687 7.45076
head 5.45817 -3.72483 2.68712
rclavicle -5.04416e-015 7.55382e-015
rhumerus 26.8959 29.6773 -60.8817
rradius 60.7128
rwrist 34.0241
rhand -5.21458 2.34785
rfingers 7.12502
rthumb 20.5872 -26.5805
lclavicle -5.04416e-015 7.55382e-015
lhumerus -33.9252 -4.7081 83.9792
lradius 27.1847
lwrist 27.8906
lhand -10.5331 9.99319
lfingers 7.12502
lthumb 15.4702 39.3942
rfemur 0.382152 1.64711 19.7571
rtibia 14.5054
rfoot -15.3969 -1.27593
rtoes -7.06897
lfemur 0 0 0
ltibia 0
lfoot 0 0
ltoes 0
1120
root 3.10992 17.782 0.415323 -23.9197 88.3385 -23.2577
lowerback 1.05971 1.41296 3.55904
upperback -1.20704 1.93224 -1.79512
thorax -1.65583 0.912748 -3.89035
lowerneck -4.68221 -5.77762 -5.32815
upperneck 13.9237 -8.16607 7.38971
head 5.48144 -3.72459 2.66277
rclavicle -6.26172e-015 7.95139e-016
rhumerus 29.5809 31.9633 -57.9985
rradius 60.6984
rwrist 34.1407
rhand -4.66557 2.67951
rfingers 7.12502
rthumb 21.1147 -26.1908
lclavicle -6.26172e-015 7.95139e-016
lhumerus -33.8931 -4.43127 83.8582
lradius 26.9981
lwrist 27.6228
lhand -10.4318 9.94269
lfingers 7.12502
lthumb 15.5678 39.3361
rfemur 0.400033 1.53213 19.6191
rtibia 14.513
rfoot -15.3619 -1.16499
rtoes -6.72646
lfemur 0 0 0
ltibia 0
lfoot 0 0
ltoes 0
1121
root 3.11126 17.7808 0.418359 -26.8059 88.3441 -26.1786
lowerback 1.029 1.42793 3.67856
upperback -1.23797 1.95368 -1.81247
thorax -1.66414 0.92123 -3.97584
lowerneck -4.70848 -5.80363 -5.34923
upperneck 14.0773 -8.20721 7.4101
head 5.53816 -3.73952 2.6681
rclavicle 1.83627e-014 -4.77083e-015
rhumerus 32.317 34.152 -54.982
rradius 60.6467
rwrist 34.4949
rhand -4.43501 2.89686
rfingers 7.12502
rthumb 21.3362 -25.9486
lclavicle 1.83627e-014 -4.77083e-015
lhumerus -33.8984 -4.32185 83.7738
lradius 26.888
lwrist 27.4633
lhand -10.4341 10.0416
lfingers 7.12502
lthumb 15.5655 39.4352
rfemur 0.383267 1.51385 19.71
rtibia 14.4946
rfoot -15.3905 -1.14313
rtoes -6.69097
lfemur 0 0 0
ltibia 0
lfoot 0 0
ltoes 0
1122
root 3.11278 17.7812 0.423355 -29.1427 88.3096 -28.5388
lowerback 1.03686 1.45181 3.78625
upperback -1.29911 1.98837 -1.83625
thorax -1.72405 0.934714 -4.0634
lowerneck -4.66376 -5.83751 -5.31566
upperneck 14.2291 -8.2578 7.37536
head 5.57828 -3.761 2.64874
rclavicle 1.15792e-014 6.36111e-015
rhumerus 35.1875 36.2958 -51.8055
rradius 60.5475
rwrist 34.5643
rhand -4.25897 3.252
rfingers 7.12502
rthumb 21.5053 -25.5742
lclavicle 1.15792e-014 6.36111e-015
lhumerus -34.0374 -4.32998 83.7073
lradius 26.9142
lwrist 27.3973
lhand -10.4013 10.2364
lfingers 7.12502
lthumb 15.5972 39.6276
rfemur 0.368945 1.51633 19.8141
rtibia 14.4643
rfoot -15.3683 -1.18186
rtoes -7.08712
lfemur 0 0 0
ltibia 0
lfoot 0 0
ltoes 0
1123
root 3.11419 17.7814 0.42685 -32.0124 88.3068 -31.4128
lowerback 1.07064 1.45918 3.91977
upperback -1.35289 2.00223 -1.87717
thorax -1.79153 0.93714 -4.1837
lowerneck -4.59773 -5.85995 -5.26904
upperneck 14.3479 -8.29653 7.36649
head 5.60422 -3.77539 2.63706
rclavicle -6.53505e-015 -6.36111e-015
rhumerus 38.3763 38.4119 -48.29
rradius 60.5001
rwrist 34.2311
rhand -3.88976 3.55702
rfingers 7.12502
rthumb 21.8598 -25.2282
lclavicle -6.53505e-015 -6.36111e-015
lhumerus -34.1424 -4.38436 83.6259
lradius 26.9127
lwrist 27.4641
lhand -10.4247 10.379
lfingers 7.12502
lthumb 15.5747 39.7719
rfemur 0.398885 1.50316 19.9181
rtibia 14.4187
rfoot -15.3266 -1.28528
rtoes -7.34631
lfemur 0 0 0
ltibia 0
lfoot 0 0
ltoes 0
1124
root 3.11618 17.782 0.430147 -31.9863 88.3838 -31.4336
lowerback 1.02747 1.47171 3.91552
upperback -1.4054 2.01777 -1.93081
thorax -1.81815 0.943366 -4.237
lowerneck -4.57706 -5.87571 -5.2258
upperneck 14.547 -8.32127 7.31184
head 5.66024 -3.78317 2.61096
rclavicle 1.19022e-014 1.27222e-014
rhumerus 41.7635 40.4111 -44.4669
rradius 60.5224
rwrist 33.949
rhand -3.84342 3.48273
rfingers 7.12502
rthumb 21.9043 -25.2973
lclavicle 1.19022e-014 1.27222e-014
lhumerus -34.1775 -4.37535 83.5593
lradius 26.8226
lwrist 27.4557
lhand -10.4531 10.4021
lfingers 7.12502
lthumb 15.5473 39.7971
rfemur 0.356286 1.37484 19.8701
rtibia 14.4211
rfoot -15.261 -1.21743
rtoes -7.02437
lfemur 0 0 0
ltibia 0
lfoot 0 0
ltoes 0
1125
root 3.12098 17.7818 0.432845 -30.9031 88.4838 -30.3546
lowerback 0.935181 1.49743 3.8791
upperback -1.3976 2.04777 -2.00315
thorax -1.75383 0.960516 -4.2889
lowerneck -4.64579 -5.92629 -5.1571
upperneck 14.778 -8.39532 7.25509
head 5.74388 -3.81114 2.57344
rclavicle 2.33572e-015 -1.35174e-014
rhumerus 45.0708 42.0748 -40.7462
rradius 60.3645
rwrist 34.3411
rhand -4.22623 3.43558
rfingers 7.12502
rthumb 21.5367 -25.387
lclavicle 2.33572e-015 -1.35174e-014
lhumerus -34.088 -4.3479 83.4896
lradius 26.6362
lwrist 27.3749
lhand -10.5816 10.3099
lfingers 7.12502
lthumb 15.4235 39.7145
rfemur 0.356438 1.22263 19.7741
rtibia 14.4644
rfoot -15.2865 -1.04447
rtoes -6.28084
lfemur 0 0 0
ltibia 0
lfoot 0 0
ltoes 0
1126
root 3.12763 17.7811 0.436645 -29.3081 88.5701 -28.7435
lowerback 0.846581 1.52518 3.83951
upperback -1.40044 2.08089 -2.0786
thorax -1.70219 0.978803 -4.34256
lowerneck -4.74775 -5.98164 -5.19095
upperneck 15.1254 -8.47978 7.2685
head 5.87779 -3.84095 2.57216
rclavicle -1.88845e-014 1.03368e-014
rhumerus 48.312 43.5622 -37.1402
rradius 60.0942
rwrist 35.0179
rhand -4.4774 3.54328
rfingers 7.12502
rthumb 21.2955 -25.3067
lclavicle -1.88845e-014 1.03368e-014
lhumerus -34.0945 -4.40876 83.4524
lradius 26.5448
lwrist 27.3827
lhand -10.6589 10.1684
lfingers 7.12502
lthumb 15.3491 39.5787
rfemur 0.382118 1.07092 19.677
rtibia 14.5024
rfoot -15.3201 -0.893629
rtoes -5.94821
lfemur 0 0 0
ltibia 0
lfoot 0 0
ltoes 0
